<?xml version="1.0" encoding="UTF-8" standalone="no"?>
<!DOCTYPE svg PUBLIC "-//W3C//DTD SVG 1.1//EN" "http://www.w3.org/Graphics/SVG/1.1/DTD/svg11.dtd">
<svg width="100%" height="100%" viewBox="0 0 140 39" version="1.1" xmlns="http://www.w3.org/2000/svg" xmlns:xlink="http://www.w3.org/1999/xlink" xml:space="preserve" xmlns:serif="http://www.serif.com/" style="fill-rule:evenodd;clip-rule:evenodd;stroke-linejoin:round;stroke-miterlimit:2;">
    <g id="Page-1">
        <g id="audible_logo_inverse">
            <g id="Group">
                <path id="shape" d="M19.723,31.936L19.723,19.161L23.966,19.161L23.966,31.78C23.966,34.844 26.526,35.634 28.033,35.634C31.245,35.634 32.295,33.763 32.295,32.694L32.295,19.161L36.537,19.161L36.537,38.99L34.069,38.99L32.45,36.778C31.293,38.151 29.403,39.431 26.588,39.431C22.539,39.431 19.723,36.741 19.723,31.936ZM67.903,12.093L72.045,12.093L72.045,21.092C72.986,19.91 74.832,18.69 77.542,18.69C81.458,18.69 84.621,20.978 84.621,25.973L84.621,32.15C84.621,37.146 81.42,39.433 77.693,39.433C74.907,39.433 72.986,38.137 71.857,36.764L70.313,38.976L67.903,38.976L67.903,12.093ZM76.501,35.62C78.496,35.62 80.479,34.21 80.479,31.845L80.479,26.278C80.479,23.914 78.496,22.503 76.539,22.503C73.752,22.503 72.045,24.089 72.045,26.253L72.045,31.687L72.046,31.687C71.981,34.37 73.879,35.62 76.501,35.62ZM52.037,12.107L56.179,12.107L56.179,38.99L53.769,38.99L52.226,36.779C51.096,38.151 49.176,39.448 46.389,39.448C42.662,39.448 39.461,37.159 39.461,32.164L39.461,25.988C39.461,20.992 42.624,18.704 46.54,18.704C49.251,18.704 51.096,19.924 52.037,21.106L52.037,12.107ZM43.603,31.86C43.603,34.224 45.586,35.634 47.582,35.634C50.203,35.634 52.102,34.384 52.036,31.702L52.037,31.702L52.037,26.267C52.037,24.104 50.331,22.517 47.544,22.517C45.586,22.517 43.603,23.928 43.603,26.292L43.603,31.86ZM87.499,12.108L91.741,12.108L91.741,38.991L87.499,38.991L87.499,12.108ZM59.977,19.161L64.219,19.161L64.219,38.99L59.977,38.99L59.977,19.161ZM62.097,16.772C60.765,16.772 59.684,15.704 59.684,14.386C59.684,13.069 60.765,12 62.097,12C63.43,12 64.51,13.069 64.51,14.386C64.51,15.704 63.43,16.772 62.097,16.772ZM103.414,35.634C105.602,35.634 107.117,34.879 108.211,33.359L111.289,35.239C110.116,37.894 107.317,39.448 103.414,39.448C98.208,39.448 94.853,36.741 94.853,32.164L94.853,26.064C94.853,21.564 98.208,18.704 103.414,18.704C108.427,18.704 111.666,21.411 111.666,25.987L111.666,30.449L99.094,30.449L99.094,32.088C99.094,34.148 100.521,35.634 103.414,35.634ZM99.094,25.987L99.094,27.245L107.425,27.245L107.425,25.987C107.425,23.928 105.997,22.517 103.259,22.517C100.521,22.517 99.094,23.928 99.094,25.987ZM8.795,18.704C14.193,18.704 16.816,21.526 16.816,25.416L16.816,38.99L14.348,38.99L12.728,36.778C11.571,38.151 9.45,39.448 6.596,39.448C2.972,39.448 0,37.503 0,33.613C0,28.11 6.423,27.237 9.017,27.237L12.574,27.232L12.574,25.683C12.574,23.738 11.378,22.517 8.795,22.517C6.996,22.517 5.673,22.673 4.288,24.853L0.974,22.813C2.011,20.345 4.679,18.704 8.795,18.704ZM12.574,32.641L12.574,30.169L10.748,30.169C8.353,30.262 4.452,30.778 4.452,33.156C4.452,34.834 5.917,35.634 7.923,35.634C9.844,35.634 11.459,34.766 12.106,33.857C12.535,33.328 12.541,32.944 12.574,32.641Z" style="fill:white;"/>
                <path id="shape1" serif:id="shape" d="M121.5,19.861L140,8.242L140,11.38L121.5,23L103,11.38L103,8.242L121.5,19.861ZM121.495,5.334C125.662,5.334 129.333,7.47 131.482,10.713L131.479,10.713L128.756,12.424C124.66,6.941 117.166,5.992 111.975,10.316C111.823,10.443 111.675,10.574 111.53,10.707L111.513,10.705C113.662,7.467 117.331,5.334 121.495,5.334ZM121.495,10.668C123.763,10.668 125.769,11.805 126.976,13.542L126.975,13.542L124.348,15.192C123.123,13.497 121.339,12.428 119.352,12.428C118.143,12.428 117.011,12.824 116.032,13.514C117.242,11.793 119.238,10.668 121.495,10.668ZM108.991,5.983C108.325,6.511 107.583,7.27 107.011,7.876C110.127,3.107 115.513,-0 121.494,-0C127.56,-0 132.896,3.137 135.985,7.888L135.985,7.887L133.166,9.652L133.127,9.593C127.387,1.545 116.607,-0.078 108.991,5.983Z" style="fill:rgb(247,153,28);"/>
            </g>
        </g>
    </g>
</svg>
